<mxfile host="Electron" modified="2024-07-27T15:04:52.445Z" agent="Mozilla/5.0 (Macintosh; Intel Mac OS X 10_15_7) AppleWebKit/537.36 (KHTML, like Gecko) draw.io/21.1.2 Chrome/106.0.5249.199 Electron/21.4.3 Safari/537.36" etag="iQnNBZQS6GSxt5juE4g7" version="21.1.2" type="device" pages="2">
  <diagram id="5ZruKXpPlvTqBJEBqCR5" name="网络帧示例">
    <mxGraphModel dx="794" dy="501" grid="1" gridSize="10" guides="1" tooltips="1" connect="1" arrows="1" fold="1" page="1" pageScale="1" pageWidth="827" pageHeight="1169" math="0" shadow="0">
      <root>
        <mxCell id="0" />
        <mxCell id="1" parent="0" />
        <mxCell id="v45lSo8jkDP5MFNTs2BX-14" value="Ethernet Header" style="rounded=0;whiteSpace=wrap;html=1;fillColor=#fff2cc;strokeColor=#d6b656;labelBackgroundColor=none;" parent="1" vertex="1">
          <mxGeometry x="160" y="120" width="80" height="40" as="geometry" />
        </mxCell>
        <mxCell id="RDQwlXFFFAaUUBq5AZ5B-3" value="IP Header" style="rounded=0;whiteSpace=wrap;html=1;fillColor=#e1d5e7;strokeColor=#9673a6;labelBackgroundColor=none;" parent="1" vertex="1">
          <mxGeometry x="240" y="120" width="80" height="40" as="geometry" />
        </mxCell>
        <mxCell id="RDQwlXFFFAaUUBq5AZ5B-4" value="TCP Header" style="rounded=0;whiteSpace=wrap;html=1;labelBackgroundColor=none;fillColor=#e1d5e7;strokeColor=#9673a6;" parent="1" vertex="1">
          <mxGeometry x="320" y="120" width="80" height="40" as="geometry" />
        </mxCell>
        <mxCell id="RDQwlXFFFAaUUBq5AZ5B-5" value="TCP Payload" style="rounded=0;whiteSpace=wrap;html=1;labelBackgroundColor=none;fillColor=#e1d5e7;strokeColor=#9673a6;" parent="1" vertex="1">
          <mxGeometry x="400" y="120" width="110" height="40" as="geometry" />
        </mxCell>
        <mxCell id="RDQwlXFFFAaUUBq5AZ5B-6" value="FCS" style="rounded=0;whiteSpace=wrap;html=1;fillColor=#fff2cc;strokeColor=#d6b656;labelBackgroundColor=none;" parent="1" vertex="1">
          <mxGeometry x="510" y="120" width="60" height="40" as="geometry" />
        </mxCell>
        <mxCell id="RDQwlXFFFAaUUBq5AZ5B-7" value="14byte" style="text;html=1;strokeColor=none;fillColor=none;align=center;verticalAlign=middle;whiteSpace=wrap;rounded=0;fontSize=14;fontFamily=Architects Daughter;labelBackgroundColor=none;fontColor=#393C56;" parent="1" vertex="1">
          <mxGeometry x="156" y="164" width="80" height="30" as="geometry" />
        </mxCell>
        <mxCell id="RDQwlXFFFAaUUBq5AZ5B-8" value="20byte" style="text;html=1;strokeColor=none;fillColor=none;align=center;verticalAlign=middle;whiteSpace=wrap;rounded=0;fontSize=14;fontFamily=Architects Daughter;labelBackgroundColor=none;fontColor=#393C56;" parent="1" vertex="1">
          <mxGeometry x="240" y="164" width="80" height="30" as="geometry" />
        </mxCell>
        <mxCell id="RDQwlXFFFAaUUBq5AZ5B-9" value="20byte" style="text;html=1;strokeColor=none;fillColor=none;align=center;verticalAlign=middle;whiteSpace=wrap;rounded=0;fontSize=14;fontFamily=Architects Daughter;labelBackgroundColor=none;fontColor=#393C56;" parent="1" vertex="1">
          <mxGeometry x="310" y="164" width="80" height="30" as="geometry" />
        </mxCell>
        <mxCell id="RDQwlXFFFAaUUBq5AZ5B-10" value="1460byte" style="text;html=1;strokeColor=none;fillColor=none;align=center;verticalAlign=middle;whiteSpace=wrap;rounded=0;fontSize=14;fontFamily=Architects Daughter;labelBackgroundColor=none;fontColor=#393C56;" parent="1" vertex="1">
          <mxGeometry x="414" y="164" width="80" height="30" as="geometry" />
        </mxCell>
        <mxCell id="RDQwlXFFFAaUUBq5AZ5B-11" value="4byte" style="text;html=1;strokeColor=none;fillColor=none;align=center;verticalAlign=middle;whiteSpace=wrap;rounded=0;fontSize=14;fontFamily=Architects Daughter;labelBackgroundColor=none;fontColor=#393C56;" parent="1" vertex="1">
          <mxGeometry x="500" y="164" width="80" height="30" as="geometry" />
        </mxCell>
        <mxCell id="RDQwlXFFFAaUUBq5AZ5B-15" value="" style="shape=crossbar;whiteSpace=wrap;html=1;rounded=1;labelBackgroundColor=none;fillColor=#0050ef;strokeColor=#001DBC;fontColor=#ffffff;" parent="1" vertex="1">
          <mxGeometry x="240" y="98" width="270" height="20" as="geometry" />
        </mxCell>
        <mxCell id="RDQwlXFFFAaUUBq5AZ5B-24" value="Ethernet MTU" style="text;html=1;strokeColor=#d6b656;fillColor=#fff2cc;align=center;verticalAlign=middle;whiteSpace=wrap;rounded=0;fontSize=12;fontFamily=Architects Daughter;labelBackgroundColor=none;" parent="1" vertex="1">
          <mxGeometry x="340" y="94" width="80" height="23" as="geometry" />
        </mxCell>
        <mxCell id="RDQwlXFFFAaUUBq5AZ5B-25" value="" style="shape=crossbar;whiteSpace=wrap;html=1;rounded=1;labelBackgroundColor=none;fillColor=#e1d5e7;strokeColor=#9673a6;" parent="1" vertex="1">
          <mxGeometry x="240" y="72" width="270" height="20" as="geometry" />
        </mxCell>
        <mxCell id="RDQwlXFFFAaUUBq5AZ5B-26" value="IP MTU" style="text;html=1;strokeColor=#9673a6;fillColor=#e1d5e7;align=center;verticalAlign=middle;whiteSpace=wrap;rounded=0;fontSize=12;fontFamily=Architects Daughter;labelBackgroundColor=none;" parent="1" vertex="1">
          <mxGeometry x="340" y="69" width="80" height="21" as="geometry" />
        </mxCell>
        <mxCell id="RDQwlXFFFAaUUBq5AZ5B-27" value="以太帧头" style="text;html=1;strokeColor=none;fillColor=none;align=center;verticalAlign=middle;whiteSpace=wrap;rounded=0;fontFamily=Architects Daughter;fontSource=https%3A%2F%2Ffonts.googleapis.com%2Fcss%3Ffamily%3DArchitects%2BDaughter;" parent="1" vertex="1">
          <mxGeometry x="162" y="90" width="60" height="30" as="geometry" />
        </mxCell>
        <mxCell id="RDQwlXFFFAaUUBq5AZ5B-28" value="帧尾CRC校验" style="text;html=1;strokeColor=none;fillColor=none;align=center;verticalAlign=middle;whiteSpace=wrap;rounded=0;fontFamily=Architects Daughter;fontSource=https%3A%2F%2Ffonts.googleapis.com%2Fcss%3Ffamily%3DArchitects%2BDaughter;" parent="1" vertex="1">
          <mxGeometry x="513" y="90" width="80" height="30" as="geometry" />
        </mxCell>
        <mxCell id="RDQwlXFFFAaUUBq5AZ5B-29" value="" style="shape=crossbar;whiteSpace=wrap;html=1;rounded=1;hachureGap=4;fontFamily=Architects Daughter;fontSource=https%3A%2F%2Ffonts.googleapis.com%2Fcss%3Ffamily%3DArchitects%2BDaughter;fontSize=20;fillColor=#0050ef;strokeColor=#001DBC;fontColor=#ffffff;" parent="1" vertex="1">
          <mxGeometry x="400" y="46" width="110" height="20" as="geometry" />
        </mxCell>
        <mxCell id="RDQwlXFFFAaUUBq5AZ5B-31" value="TCP MSS" style="text;html=1;strokeColor=#001DBC;fillColor=#0050ef;align=center;verticalAlign=middle;whiteSpace=wrap;rounded=0;fontSize=12;fontFamily=Architects Daughter;labelBackgroundColor=none;fontColor=#ffffff;" parent="1" vertex="1">
          <mxGeometry x="417" y="45" width="80" height="21" as="geometry" />
        </mxCell>
      </root>
    </mxGraphModel>
  </diagram>
  <diagram id="kLEr_kiec8qqstY1G4lh" name="IP路由">
    <mxGraphModel dx="1764" dy="1113" grid="1" gridSize="10" guides="1" tooltips="1" connect="1" arrows="1" fold="1" page="1" pageScale="1" pageWidth="827" pageHeight="1169" math="0" shadow="0">
      <root>
        <mxCell id="0" />
        <mxCell id="1" parent="0" />
        <mxCell id="eUir-bxXocMNt4hy4UCX-109" value="" style="rounded=0;whiteSpace=wrap;html=1;sketch=1;hachureGap=4;jiggle=2;curveFitting=1;fontFamily=Architects Daughter;fontSource=https%3A%2F%2Ffonts.googleapis.com%2Fcss%3Ffamily%3DArchitects%2BDaughter;fontSize=20;" parent="1" vertex="1">
          <mxGeometry x="1028" y="889" width="410" height="240" as="geometry" />
        </mxCell>
        <mxCell id="eUir-bxXocMNt4hy4UCX-22" value="" style="rounded=1;whiteSpace=wrap;html=1;sketch=1;hachureGap=4;jiggle=2;curveFitting=1;fontFamily=Architects Daughter;fontSource=https%3A%2F%2Ffonts.googleapis.com%2Fcss%3Ffamily%3DArchitects%2BDaughter;fontSize=20;labelBackgroundColor=none;fillColor=#F2CC8F;strokeColor=#E07A5F;fontColor=#393C56;" parent="1" vertex="1">
          <mxGeometry x="1000" y="230" width="120" height="60" as="geometry" />
        </mxCell>
        <mxCell id="eUir-bxXocMNt4hy4UCX-18" value="" style="rounded=1;whiteSpace=wrap;html=1;sketch=1;hachureGap=4;jiggle=2;curveFitting=1;fontFamily=Architects Daughter;fontSource=https%3A%2F%2Ffonts.googleapis.com%2Fcss%3Ffamily%3DArchitects%2BDaughter;fontSize=20;labelBackgroundColor=none;fillColor=#F2CC8F;strokeColor=#E07A5F;fontColor=#393C56;" parent="1" vertex="1">
          <mxGeometry x="1000" y="120" width="120" height="60" as="geometry" />
        </mxCell>
        <mxCell id="eUir-bxXocMNt4hy4UCX-25" value="" style="rounded=1;whiteSpace=wrap;html=1;sketch=1;hachureGap=4;jiggle=2;curveFitting=1;fontFamily=Architects Daughter;fontSource=https%3A%2F%2Ffonts.googleapis.com%2Fcss%3Ffamily%3DArchitects%2BDaughter;fontSize=20;labelBackgroundColor=none;fillColor=#F2CC8F;strokeColor=#E07A5F;fontColor=#393C56;" parent="1" vertex="1">
          <mxGeometry x="1250" y="120" width="120" height="60" as="geometry" />
        </mxCell>
        <mxCell id="eUir-bxXocMNt4hy4UCX-8" value="" style="line;strokeWidth=4;direction=south;html=1;perimeter=backbonePerimeter;points=[];outlineConnect=0;sketch=1;curveFitting=1;jiggle=2;labelBackgroundColor=none;fillColor=#F2CC8F;strokeColor=#E07A5F;fontColor=#393C56;" parent="1" vertex="1">
          <mxGeometry x="1180" y="110" width="10" height="220" as="geometry" />
        </mxCell>
        <mxCell id="eUir-bxXocMNt4hy4UCX-31" value="" style="edgeStyle=orthogonalEdgeStyle;rounded=0;sketch=1;hachureGap=4;jiggle=2;curveFitting=1;orthogonalLoop=1;jettySize=auto;html=1;fontFamily=Architects Daughter;fontSource=https%3A%2F%2Ffonts.googleapis.com%2Fcss%3Ffamily%3DArchitects%2BDaughter;fontSize=16;entryX=0.5;entryY=0;entryDx=0;entryDy=0;labelBackgroundColor=none;strokeColor=#E07A5F;fontColor=default;" parent="1" source="eUir-bxXocMNt4hy4UCX-18" target="eUir-bxXocMNt4hy4UCX-22" edge="1">
          <mxGeometry relative="1" as="geometry" />
        </mxCell>
        <mxCell id="eUir-bxXocMNt4hy4UCX-33" value="" style="edgeStyle=orthogonalEdgeStyle;rounded=0;sketch=1;hachureGap=4;jiggle=2;curveFitting=1;orthogonalLoop=1;jettySize=auto;html=1;fontFamily=Architects Daughter;fontSource=https%3A%2F%2Ffonts.googleapis.com%2Fcss%3Ffamily%3DArchitects%2BDaughter;fontSize=16;entryX=0;entryY=0.5;entryDx=0;entryDy=0;labelBackgroundColor=none;strokeColor=#E07A5F;fontColor=default;dashed=1;" parent="1" source="eUir-bxXocMNt4hy4UCX-18" target="eUir-bxXocMNt4hy4UCX-25" edge="1">
          <mxGeometry relative="1" as="geometry" />
        </mxCell>
        <mxCell id="eUir-bxXocMNt4hy4UCX-19" value="host1&lt;br&gt;192.168.1.2" style="text;html=1;strokeColor=none;fillColor=none;align=center;verticalAlign=middle;whiteSpace=wrap;rounded=0;fontSize=20;fontFamily=Architects Daughter;labelBackgroundColor=none;fontColor=#393C56;" parent="1" vertex="1">
          <mxGeometry x="1030" y="135" width="60" height="30" as="geometry" />
        </mxCell>
        <mxCell id="eUir-bxXocMNt4hy4UCX-23" value="host2&lt;br&gt;192.168.1.3" style="text;html=1;strokeColor=none;fillColor=none;align=center;verticalAlign=middle;whiteSpace=wrap;rounded=0;fontSize=20;fontFamily=Architects Daughter;labelBackgroundColor=none;fontColor=#393C56;" parent="1" vertex="1">
          <mxGeometry x="1030" y="245" width="60" height="30" as="geometry" />
        </mxCell>
        <mxCell id="eUir-bxXocMNt4hy4UCX-26" value="host3&lt;br&gt;192.168.2.2" style="text;html=1;strokeColor=none;fillColor=none;align=center;verticalAlign=middle;whiteSpace=wrap;rounded=0;fontSize=20;fontFamily=Architects Daughter;labelBackgroundColor=none;fontColor=#393C56;" parent="1" vertex="1">
          <mxGeometry x="1280" y="135" width="60" height="30" as="geometry" />
        </mxCell>
        <mxCell id="eUir-bxXocMNt4hy4UCX-27" value="host4&lt;br&gt;192.168.2.3" style="rounded=1;whiteSpace=wrap;html=1;sketch=1;hachureGap=4;jiggle=2;curveFitting=1;fontFamily=Architects Daughter;fontSource=https%3A%2F%2Ffonts.googleapis.com%2Fcss%3Ffamily%3DArchitects%2BDaughter;fontSize=20;labelBackgroundColor=none;fillColor=#F2CC8F;strokeColor=#E07A5F;fontColor=#393C56;" parent="1" vertex="1">
          <mxGeometry x="1250" y="236" width="120" height="60" as="geometry" />
        </mxCell>
        <mxCell id="eUir-bxXocMNt4hy4UCX-36" value="直接路由" style="text;html=1;strokeColor=none;fillColor=none;align=center;verticalAlign=middle;whiteSpace=wrap;rounded=0;fontSize=20;fontFamily=Architects Daughter;labelBackgroundColor=none;fontColor=#393C56;" parent="1" vertex="1">
          <mxGeometry x="960" y="190" width="90" height="30" as="geometry" />
        </mxCell>
        <mxCell id="eUir-bxXocMNt4hy4UCX-37" value="间接路由" style="text;html=1;strokeColor=none;fillColor=none;align=center;verticalAlign=middle;whiteSpace=wrap;rounded=0;fontSize=20;fontFamily=Architects Daughter;labelBackgroundColor=none;fontColor=#393C56;" parent="1" vertex="1">
          <mxGeometry x="1130" y="110" width="90" height="35" as="geometry" />
        </mxCell>
        <mxCell id="eUir-bxXocMNt4hy4UCX-48" value="" style="edgeStyle=orthogonalEdgeStyle;rounded=0;sketch=1;hachureGap=4;jiggle=2;curveFitting=1;orthogonalLoop=1;jettySize=auto;html=1;strokeColor=#E07A5F;fontFamily=Architects Daughter;fontSource=https%3A%2F%2Ffonts.googleapis.com%2Fcss%3Ffamily%3DArchitects%2BDaughter;fontSize=16;fontColor=#393C56;fillColor=#F2CC8F;" parent="1" source="eUir-bxXocMNt4hy4UCX-40" target="eUir-bxXocMNt4hy4UCX-47" edge="1">
          <mxGeometry relative="1" as="geometry" />
        </mxCell>
        <mxCell id="eUir-bxXocMNt4hy4UCX-40" value="从目的IP(host3)提取网络号" style="rounded=0;whiteSpace=wrap;html=1;sketch=1;hachureGap=4;jiggle=2;curveFitting=1;strokeColor=#E07A5F;fontFamily=Architects Daughter;fontSource=https%3A%2F%2Ffonts.googleapis.com%2Fcss%3Ffamily%3DArchitects%2BDaughter;fontSize=20;fontColor=#393C56;fillColor=#F2CC8F;" parent="1" vertex="1">
          <mxGeometry x="841" y="461" width="250" height="40" as="geometry" />
        </mxCell>
        <mxCell id="eUir-bxXocMNt4hy4UCX-46" value="" style="curved=1;endArrow=classic;html=1;rounded=0;sketch=1;hachureGap=4;jiggle=2;curveFitting=1;strokeColor=#E07A5F;fontFamily=Architects Daughter;fontSource=https%3A%2F%2Ffonts.googleapis.com%2Fcss%3Ffamily%3DArchitects%2BDaughter;fontSize=16;fontColor=#393C56;fillColor=#F2CC8F;" parent="1" edge="1">
          <mxGeometry width="50" height="50" relative="1" as="geometry">
            <mxPoint x="1160" y="160" as="sourcePoint" />
            <mxPoint x="1070" y="390" as="targetPoint" />
            <Array as="points">
              <mxPoint x="1170" y="270" />
              <mxPoint x="1150" y="290" />
              <mxPoint x="1150" y="320" />
            </Array>
          </mxGeometry>
        </mxCell>
        <mxCell id="eUir-bxXocMNt4hy4UCX-57" value="" style="edgeStyle=orthogonalEdgeStyle;rounded=0;sketch=1;hachureGap=4;jiggle=2;curveFitting=1;orthogonalLoop=1;jettySize=auto;html=1;strokeColor=#E07A5F;fontFamily=Architects Daughter;fontSource=https%3A%2F%2Ffonts.googleapis.com%2Fcss%3Ffamily%3DArchitects%2BDaughter;fontSize=16;fontColor=#393C56;fillColor=#F2CC8F;" parent="1" source="eUir-bxXocMNt4hy4UCX-47" target="eUir-bxXocMNt4hy4UCX-56" edge="1">
          <mxGeometry relative="1" as="geometry" />
        </mxCell>
        <mxCell id="eUir-bxXocMNt4hy4UCX-47" value="扫描路由表" style="rounded=0;whiteSpace=wrap;html=1;sketch=1;hachureGap=4;jiggle=2;curveFitting=1;strokeColor=#E07A5F;fontFamily=Architects Daughter;fontSource=https%3A%2F%2Ffonts.googleapis.com%2Fcss%3Ffamily%3DArchitects%2BDaughter;fontSize=20;fontColor=#393C56;fillColor=#F2CC8F;" parent="1" vertex="1">
          <mxGeometry x="870" y="541" width="190" height="40" as="geometry" />
        </mxCell>
        <mxCell id="eUir-bxXocMNt4hy4UCX-49" value="提取192.168.2" style="text;html=1;strokeColor=none;fillColor=none;align=center;verticalAlign=middle;whiteSpace=wrap;rounded=0;fontSize=15;fontFamily=Architects Daughter;fontColor=#393C56;" parent="1" vertex="1">
          <mxGeometry x="938" y="501" width="170" height="30" as="geometry" />
        </mxCell>
        <mxCell id="eUir-bxXocMNt4hy4UCX-52" value="" style="shape=curlyBracket;whiteSpace=wrap;html=1;rounded=1;labelPosition=left;verticalLabelPosition=middle;align=right;verticalAlign=middle;sketch=1;hachureGap=4;jiggle=2;curveFitting=1;strokeColor=#E07A5F;fontFamily=Architects Daughter;fontSource=https%3A%2F%2Ffonts.googleapis.com%2Fcss%3Ffamily%3DArchitects%2BDaughter;fontSize=20;fontColor=#393C56;fillColor=#F2CC8F;" parent="1" vertex="1">
          <mxGeometry x="821" y="477" width="20" height="174" as="geometry" />
        </mxCell>
        <mxCell id="eUir-bxXocMNt4hy4UCX-53" value="IP模块" style="text;strokeColor=none;fillColor=none;html=1;fontSize=20;fontStyle=1;verticalAlign=middle;align=center;fontFamily=Architects Daughter;fontColor=#393C56;" parent="1" vertex="1">
          <mxGeometry x="728" y="544" width="100" height="40" as="geometry" />
        </mxCell>
        <mxCell id="eUir-bxXocMNt4hy4UCX-54" value="网络A" style="text;strokeColor=none;fillColor=none;html=1;fontSize=20;fontStyle=1;verticalAlign=middle;align=center;fontFamily=Architects Daughter;fontColor=#393C56;" parent="1" vertex="1">
          <mxGeometry x="1010" y="60" width="100" height="40" as="geometry" />
        </mxCell>
        <mxCell id="eUir-bxXocMNt4hy4UCX-55" value="网络B" style="text;strokeColor=none;fillColor=none;html=1;fontSize=20;fontStyle=1;verticalAlign=middle;align=center;fontFamily=Architects Daughter;fontColor=#393C56;" parent="1" vertex="1">
          <mxGeometry x="1270" y="60" width="100" height="40" as="geometry" />
        </mxCell>
        <mxCell id="eUir-bxXocMNt4hy4UCX-62" value="" style="edgeStyle=orthogonalEdgeStyle;rounded=0;sketch=1;hachureGap=4;jiggle=2;curveFitting=1;orthogonalLoop=1;jettySize=auto;html=1;strokeColor=#E07A5F;fontFamily=Architects Daughter;fontSource=https%3A%2F%2Ffonts.googleapis.com%2Fcss%3Ffamily%3DArchitects%2BDaughter;fontSize=16;fontColor=#393C56;fillColor=#F2CC8F;" parent="1" source="eUir-bxXocMNt4hy4UCX-56" target="eUir-bxXocMNt4hy4UCX-61" edge="1">
          <mxGeometry relative="1" as="geometry" />
        </mxCell>
        <mxCell id="eUir-bxXocMNt4hy4UCX-56" value="为路由器IP执行ARP查询" style="rounded=0;whiteSpace=wrap;html=1;sketch=1;hachureGap=4;jiggle=2;curveFitting=1;strokeColor=#E07A5F;fontFamily=Architects Daughter;fontSource=https%3A%2F%2Ffonts.googleapis.com%2Fcss%3Ffamily%3DArchitects%2BDaughter;fontSize=20;fontColor=#393C56;fillColor=#F2CC8F;" parent="1" vertex="1">
          <mxGeometry x="854.5" y="624.5" width="221" height="40" as="geometry" />
        </mxCell>
        <mxCell id="eUir-bxXocMNt4hy4UCX-59" value="匹配出向路由为路由器ip，路由标记为&lt;b&gt;&lt;font color=&quot;#ff3333&quot;&gt;indirect&lt;/font&gt;&lt;/b&gt;" style="text;html=1;strokeColor=none;fillColor=none;align=left;verticalAlign=middle;whiteSpace=wrap;rounded=0;fontSize=15;fontFamily=Architects Daughter;fontColor=#393C56;" parent="1" vertex="1">
          <mxGeometry x="974" y="586" width="186" height="30" as="geometry" />
        </mxCell>
        <mxCell id="eUir-bxXocMNt4hy4UCX-60" value="获取路由器IP的以太网地址，即mac" style="text;html=1;strokeColor=none;fillColor=none;align=left;verticalAlign=middle;whiteSpace=wrap;rounded=0;fontSize=15;fontFamily=Architects Daughter;fontColor=#393C56;" parent="1" vertex="1">
          <mxGeometry x="974" y="677.5" width="130" height="30" as="geometry" />
        </mxCell>
        <mxCell id="eUir-bxXocMNt4hy4UCX-61" value="通过路由网口发送IP包" style="rounded=0;whiteSpace=wrap;html=1;sketch=1;hachureGap=4;jiggle=2;curveFitting=1;strokeColor=#E07A5F;fontFamily=Architects Daughter;fontSource=https%3A%2F%2Ffonts.googleapis.com%2Fcss%3Ffamily%3DArchitects%2BDaughter;fontSize=20;fontColor=#393C56;fillColor=#F2CC8F;" parent="1" vertex="1">
          <mxGeometry x="861.75" y="717.5" width="206.5" height="40" as="geometry" />
        </mxCell>
        <mxCell id="eUir-bxXocMNt4hy4UCX-63" value="目的IP为host3，目的mac为路由器mac" style="text;html=1;strokeColor=none;fillColor=none;align=left;verticalAlign=middle;whiteSpace=wrap;rounded=0;fontSize=15;fontFamily=Architects Daughter;fontColor=#393C56;" parent="1" vertex="1">
          <mxGeometry x="928" y="767.5" width="135.5" height="30" as="geometry" />
        </mxCell>
        <mxCell id="eUir-bxXocMNt4hy4UCX-66" value="" style="rounded=1;whiteSpace=wrap;html=1;strokeWidth=2;fillWeight=4;hachureGap=8;hachureAngle=45;fillColor=#1ba1e2;sketch=1;jiggle=2;curveFitting=1;strokeColor=#E07A5F;fontFamily=Architects Daughter;fontSource=https%3A%2F%2Ffonts.googleapis.com%2Fcss%3Ffamily%3DArchitects%2BDaughter;fontSize=20;fontColor=#393C56;" parent="1" vertex="1">
          <mxGeometry x="1146" y="50" width="74" height="40" as="geometry" />
        </mxCell>
        <mxCell id="eUir-bxXocMNt4hy4UCX-67" value="路由器" style="text;strokeColor=none;fillColor=none;html=1;fontSize=20;fontStyle=1;verticalAlign=middle;align=center;fontFamily=Architects Daughter;fontColor=#393C56;" parent="1" vertex="1">
          <mxGeometry x="1135" y="10" width="100" height="40" as="geometry" />
        </mxCell>
        <mxCell id="eUir-bxXocMNt4hy4UCX-68" value="" style="endArrow=classic;html=1;rounded=0;sketch=1;hachureGap=4;jiggle=2;curveFitting=1;strokeColor=#E07A5F;fontFamily=Architects Daughter;fontSource=https%3A%2F%2Ffonts.googleapis.com%2Fcss%3Ffamily%3DArchitects%2BDaughter;fontSize=16;fontColor=#393C56;fillColor=#F2CC8F;" parent="1" edge="1">
          <mxGeometry width="50" height="50" relative="1" as="geometry">
            <mxPoint x="1090" y="120" as="sourcePoint" />
            <mxPoint x="1140" y="80" as="targetPoint" />
          </mxGeometry>
        </mxCell>
        <mxCell id="eUir-bxXocMNt4hy4UCX-69" value="" style="endArrow=classic;html=1;rounded=0;sketch=1;hachureGap=4;jiggle=2;curveFitting=1;strokeColor=#E07A5F;fontFamily=Architects Daughter;fontSource=https%3A%2F%2Ffonts.googleapis.com%2Fcss%3Ffamily%3DArchitects%2BDaughter;fontSize=16;fontColor=#393C56;fillColor=#F2CC8F;entryX=0.192;entryY=-0.075;entryDx=0;entryDy=0;entryPerimeter=0;" parent="1" target="eUir-bxXocMNt4hy4UCX-25" edge="1">
          <mxGeometry width="50" height="50" relative="1" as="geometry">
            <mxPoint x="1230" y="80" as="sourcePoint" />
            <mxPoint x="1280" y="30" as="targetPoint" />
          </mxGeometry>
        </mxCell>
        <mxCell id="eUir-bxXocMNt4hy4UCX-95" style="edgeStyle=orthogonalEdgeStyle;rounded=0;sketch=1;hachureGap=4;jiggle=2;curveFitting=1;orthogonalLoop=1;jettySize=auto;html=1;entryX=0.5;entryY=0;entryDx=0;entryDy=0;strokeColor=#E07A5F;fontFamily=Architects Daughter;fontSource=https%3A%2F%2Ffonts.googleapis.com%2Fcss%3Ffamily%3DArchitects%2BDaughter;fontSize=16;fontColor=#393C56;fillColor=#F2CC8F;" parent="1" edge="1">
          <mxGeometry relative="1" as="geometry">
            <mxPoint x="1199" y="767.5" as="sourcePoint" />
            <mxPoint x="1199" y="809" as="targetPoint" />
          </mxGeometry>
        </mxCell>
        <mxCell id="eUir-bxXocMNt4hy4UCX-75" value="包到达路由器后网口后，&lt;br style=&quot;font-size: 15px;&quot;&gt;向上传递给IP模块" style="text;html=1;strokeColor=none;fillColor=none;align=left;verticalAlign=middle;whiteSpace=wrap;rounded=0;fontSize=15;fontFamily=Architects Daughter;fontColor=#393C56;" parent="1" vertex="1">
          <mxGeometry x="1220" y="789" width="170" as="geometry" />
        </mxCell>
        <mxCell id="eUir-bxXocMNt4hy4UCX-78" value="" style="html=1;shadow=0;dashed=0;align=center;verticalAlign=middle;shape=mxgraph.arrows2.arrow;dy=0.63;dx=21;notch=0;sketch=1;hachureGap=4;jiggle=2;curveFitting=1;strokeColor=#E07A5F;fontFamily=Architects Daughter;fontSource=https%3A%2F%2Ffonts.googleapis.com%2Fcss%3Ffamily%3DArchitects%2BDaughter;fontSize=20;fontColor=#393C56;fillColor=#F2CC8F;" parent="1" vertex="1">
          <mxGeometry x="1079" y="727.5" width="52" height="20" as="geometry" />
        </mxCell>
        <mxCell id="eUir-bxXocMNt4hy4UCX-94" value="转发IP包" style="text;strokeColor=none;fillColor=none;html=1;fontSize=20;fontStyle=1;verticalAlign=middle;align=center;fontFamily=Architects Daughter;fontColor=#393C56;" parent="1" vertex="1">
          <mxGeometry x="1430" y="797.5" width="100" height="40" as="geometry" />
        </mxCell>
        <mxCell id="eUir-bxXocMNt4hy4UCX-100" style="edgeStyle=orthogonalEdgeStyle;rounded=0;sketch=1;hachureGap=4;jiggle=2;curveFitting=1;orthogonalLoop=1;jettySize=auto;html=1;strokeColor=#E07A5F;fontFamily=Architects Daughter;fontSource=https%3A%2F%2Ffonts.googleapis.com%2Fcss%3Ffamily%3DArchitects%2BDaughter;fontSize=16;fontColor=#393C56;fillColor=#F2CC8F;" parent="1" source="eUir-bxXocMNt4hy4UCX-99" edge="1">
          <mxGeometry relative="1" as="geometry">
            <mxPoint x="1197.335" y="909" as="targetPoint" />
          </mxGeometry>
        </mxCell>
        <mxCell id="eUir-bxXocMNt4hy4UCX-99" value="目的IP校验" style="html=1;whiteSpace=wrap;aspect=fixed;shape=isoRectangle;sketch=1;hachureGap=4;jiggle=2;curveFitting=1;strokeColor=#E07A5F;fontFamily=Architects Daughter;fontSource=https%3A%2F%2Ffonts.googleapis.com%2Fcss%3Ffamily%3DArchitects%2BDaughter;fontSize=20;fontColor=#393C56;fillColor=#F2CC8F;" parent="1" vertex="1">
          <mxGeometry x="1139" y="809" width="116.67" height="70" as="geometry" />
        </mxCell>
        <mxCell id="eUir-bxXocMNt4hy4UCX-105" value="" style="edgeStyle=orthogonalEdgeStyle;rounded=0;sketch=1;hachureGap=4;jiggle=2;curveFitting=1;orthogonalLoop=1;jettySize=auto;html=1;strokeColor=#E07A5F;fontFamily=Architects Daughter;fontSource=https%3A%2F%2Ffonts.googleapis.com%2Fcss%3Ffamily%3DArchitects%2BDaughter;fontSize=16;fontColor=#393C56;fillColor=#F2CC8F;" parent="1" source="eUir-bxXocMNt4hy4UCX-101" target="eUir-bxXocMNt4hy4UCX-104" edge="1">
          <mxGeometry relative="1" as="geometry" />
        </mxCell>
        <mxCell id="eUir-bxXocMNt4hy4UCX-101" value="从目的IP(host3)提取网络号" style="rounded=0;whiteSpace=wrap;html=1;sketch=1;hachureGap=4;jiggle=2;curveFitting=1;strokeColor=#E07A5F;fontFamily=Architects Daughter;fontSource=https%3A%2F%2Ffonts.googleapis.com%2Fcss%3Ffamily%3DArchitects%2BDaughter;fontSize=20;fontColor=#393C56;fillColor=#F2CC8F;" parent="1" vertex="1">
          <mxGeometry x="1074" y="909" width="250" height="40" as="geometry" />
        </mxCell>
        <mxCell id="eUir-bxXocMNt4hy4UCX-102" value="目的IP非自己的IP" style="text;html=1;strokeColor=none;fillColor=none;align=center;verticalAlign=middle;whiteSpace=wrap;rounded=0;fontSize=15;fontFamily=Architects Daughter;fontColor=#393C56;" parent="1" vertex="1">
          <mxGeometry x="1210" y="876" width="120" height="10" as="geometry" />
        </mxCell>
        <mxCell id="eUir-bxXocMNt4hy4UCX-103" value="提取192.168.2" style="text;html=1;strokeColor=none;fillColor=none;align=center;verticalAlign=middle;whiteSpace=wrap;rounded=0;fontSize=15;fontFamily=Architects Daughter;fontColor=#393C56;" parent="1" vertex="1">
          <mxGeometry x="1194" y="959" width="130" height="30" as="geometry" />
        </mxCell>
        <mxCell id="eUir-bxXocMNt4hy4UCX-108" value="" style="edgeStyle=orthogonalEdgeStyle;rounded=0;sketch=1;hachureGap=4;jiggle=2;curveFitting=1;orthogonalLoop=1;jettySize=auto;html=1;strokeColor=#E07A5F;fontFamily=Architects Daughter;fontSource=https%3A%2F%2Ffonts.googleapis.com%2Fcss%3Ffamily%3DArchitects%2BDaughter;fontSize=16;fontColor=#393C56;fillColor=#F2CC8F;" parent="1" source="eUir-bxXocMNt4hy4UCX-104" target="eUir-bxXocMNt4hy4UCX-107" edge="1">
          <mxGeometry relative="1" as="geometry" />
        </mxCell>
        <mxCell id="eUir-bxXocMNt4hy4UCX-104" value="扫描路由表寻找匹配项" style="rounded=0;whiteSpace=wrap;html=1;sketch=1;hachureGap=4;jiggle=2;curveFitting=1;strokeColor=#E07A5F;fontFamily=Architects Daughter;fontSource=https%3A%2F%2Ffonts.googleapis.com%2Fcss%3Ffamily%3DArchitects%2BDaughter;fontSize=20;fontColor=#393C56;fillColor=#F2CC8F;" parent="1" vertex="1">
          <mxGeometry x="1074" y="989" width="250" height="40" as="geometry" />
        </mxCell>
        <mxCell id="eUir-bxXocMNt4hy4UCX-106" value="匹配出向路由，路由标记为&lt;b&gt;&lt;font color=&quot;#ff3333&quot;&gt;direct&lt;/font&gt;&lt;/b&gt;" style="text;html=1;strokeColor=none;fillColor=none;align=center;verticalAlign=middle;whiteSpace=wrap;rounded=0;fontSize=15;fontFamily=Architects Daughter;fontColor=#393C56;" parent="1" vertex="1">
          <mxGeometry x="1202" y="1029" width="236" height="30" as="geometry" />
        </mxCell>
        <mxCell id="eUir-bxXocMNt4hy4UCX-107" value="直接发送IP数据给host3" style="rounded=0;whiteSpace=wrap;html=1;sketch=1;hachureGap=4;jiggle=2;curveFitting=1;strokeColor=#E07A5F;fontFamily=Architects Daughter;fontSource=https%3A%2F%2Ffonts.googleapis.com%2Fcss%3Ffamily%3DArchitects%2BDaughter;fontSize=20;fontColor=#393C56;fillColor=#F2CC8F;" parent="1" vertex="1">
          <mxGeometry x="1072.34" y="1069" width="250" height="40" as="geometry" />
        </mxCell>
        <mxCell id="eUir-bxXocMNt4hy4UCX-110" value="转发" style="text;strokeColor=none;fillColor=none;html=1;fontSize=20;fontStyle=1;verticalAlign=middle;align=center;fontFamily=Architects Daughter;fontColor=#393C56;" parent="1" vertex="1">
          <mxGeometry x="935" y="979" width="100" height="40" as="geometry" />
        </mxCell>
        <mxCell id="eUir-bxXocMNt4hy4UCX-111" value="" style="shape=flexArrow;endArrow=classic;html=1;rounded=0;sketch=1;hachureGap=4;jiggle=2;curveFitting=1;strokeColor=#E07A5F;fontFamily=Architects Daughter;fontSource=https%3A%2F%2Ffonts.googleapis.com%2Fcss%3Ffamily%3DArchitects%2BDaughter;fontSize=16;fontColor=#393C56;fillColor=#F2CC8F;" parent="1" edge="1">
          <mxGeometry width="50" height="50" relative="1" as="geometry">
            <mxPoint x="1390" y="869" as="sourcePoint" />
            <mxPoint x="1430" y="769" as="targetPoint" />
          </mxGeometry>
        </mxCell>
        <mxCell id="eUir-bxXocMNt4hy4UCX-114" value="" style="edgeStyle=orthogonalEdgeStyle;rounded=0;sketch=1;hachureGap=4;jiggle=2;curveFitting=1;orthogonalLoop=1;jettySize=auto;html=1;strokeColor=#E07A5F;fontFamily=Architects Daughter;fontSource=https%3A%2F%2Ffonts.googleapis.com%2Fcss%3Ffamily%3DArchitects%2BDaughter;fontSize=16;fontColor=#393C56;fillColor=#F2CC8F;" parent="1" source="eUir-bxXocMNt4hy4UCX-112" target="eUir-bxXocMNt4hy4UCX-113" edge="1">
          <mxGeometry relative="1" as="geometry" />
        </mxCell>
        <mxCell id="eUir-bxXocMNt4hy4UCX-112" value="IP包到达，传递给IP模块" style="rounded=0;whiteSpace=wrap;html=1;sketch=1;hachureGap=4;jiggle=2;curveFitting=1;strokeColor=#E07A5F;fontFamily=Architects Daughter;fontSource=https%3A%2F%2Ffonts.googleapis.com%2Fcss%3Ffamily%3DArchitects%2BDaughter;fontSize=20;fontColor=#393C56;fillColor=#F2CC8F;" parent="1" vertex="1">
          <mxGeometry x="1351" y="715.25" width="230" height="44.5" as="geometry" />
        </mxCell>
        <mxCell id="eUir-bxXocMNt4hy4UCX-121" value="" style="edgeStyle=orthogonalEdgeStyle;rounded=0;sketch=1;hachureGap=4;jiggle=2;curveFitting=1;orthogonalLoop=1;jettySize=auto;html=1;strokeColor=#E07A5F;fontFamily=Architects Daughter;fontSource=https%3A%2F%2Ffonts.googleapis.com%2Fcss%3Ffamily%3DArchitects%2BDaughter;fontSize=16;fontColor=#393C56;fillColor=#F2CC8F;" parent="1" source="eUir-bxXocMNt4hy4UCX-113" target="eUir-bxXocMNt4hy4UCX-120" edge="1">
          <mxGeometry relative="1" as="geometry" />
        </mxCell>
        <mxCell id="eUir-bxXocMNt4hy4UCX-113" value="IP模块" style="rounded=0;whiteSpace=wrap;html=1;sketch=1;hachureGap=4;jiggle=2;curveFitting=1;strokeColor=#E07A5F;fontFamily=Architects Daughter;fontSource=https%3A%2F%2Ffonts.googleapis.com%2Fcss%3Ffamily%3DArchitects%2BDaughter;fontSize=20;fontColor=#393C56;fillColor=#F2CC8F;" parent="1" vertex="1">
          <mxGeometry x="1396" y="564.5" width="140" height="60" as="geometry" />
        </mxCell>
        <mxCell id="eUir-bxXocMNt4hy4UCX-117" value="目的IP和目的mac都是自己。&lt;br&gt;若目的mac非自己则继续转发" style="text;html=1;strokeColor=none;fillColor=none;align=left;verticalAlign=middle;whiteSpace=wrap;rounded=0;fontSize=15;fontFamily=Architects Daughter;fontColor=#393C56;" parent="1" vertex="1">
          <mxGeometry x="1471" y="504" width="200" height="40" as="geometry" />
        </mxCell>
        <mxCell id="eUir-bxXocMNt4hy4UCX-120" value="更上层处理" style="rounded=0;whiteSpace=wrap;html=1;sketch=1;hachureGap=4;jiggle=2;curveFitting=1;strokeColor=#E07A5F;fontFamily=Architects Daughter;fontSource=https%3A%2F%2Ffonts.googleapis.com%2Fcss%3Ffamily%3DArchitects%2BDaughter;fontSize=20;fontColor=#393C56;fillColor=#F2CC8F;" parent="1" vertex="1">
          <mxGeometry x="1398" y="461" width="136" height="40" as="geometry" />
        </mxCell>
        <mxCell id="eUir-bxXocMNt4hy4UCX-124" value="host1" style="fontColor=#0066CC;verticalAlign=top;verticalLabelPosition=bottom;labelPosition=center;align=center;html=1;outlineConnect=0;fillColor=#CCCCCC;strokeColor=#6881B3;gradientColor=none;gradientDirection=north;strokeWidth=2;shape=mxgraph.networks.pc;sketch=1;hachureGap=4;jiggle=2;curveFitting=1;fontFamily=Architects Daughter;fontSource=https%3A%2F%2Ffonts.googleapis.com%2Fcss%3Ffamily%3DArchitects%2BDaughter;fontSize=20;" parent="1" vertex="1">
          <mxGeometry x="913" y="360" width="90" height="60" as="geometry" />
        </mxCell>
        <mxCell id="eUir-bxXocMNt4hy4UCX-125" value="host3" style="fontColor=#0066CC;verticalAlign=top;verticalLabelPosition=bottom;labelPosition=center;align=center;html=1;outlineConnect=0;fillColor=#CCCCCC;strokeColor=#6881B3;gradientColor=none;gradientDirection=north;strokeWidth=2;shape=mxgraph.networks.pc;sketch=1;hachureGap=4;jiggle=2;curveFitting=1;fontFamily=Architects Daughter;fontSource=https%3A%2F%2Ffonts.googleapis.com%2Fcss%3Ffamily%3DArchitects%2BDaughter;fontSize=20;" parent="1" vertex="1">
          <mxGeometry x="1422" y="360" width="90" height="60" as="geometry" />
        </mxCell>
        <mxCell id="eUir-bxXocMNt4hy4UCX-126" value="路由器" style="fontColor=#0066CC;verticalAlign=top;verticalLabelPosition=bottom;labelPosition=center;align=center;html=1;outlineConnect=0;fillColor=#CCCCCC;strokeColor=#6881B3;gradientColor=none;gradientDirection=north;strokeWidth=2;shape=mxgraph.networks.router;sketch=1;hachureGap=4;jiggle=2;curveFitting=1;fontFamily=Architects Daughter;fontSource=https%3A%2F%2Ffonts.googleapis.com%2Fcss%3Ffamily%3DArchitects%2BDaughter;fontSize=20;" parent="1" vertex="1">
          <mxGeometry x="1147.33" y="707.5" width="100" height="30" as="geometry" />
        </mxCell>
      </root>
    </mxGraphModel>
  </diagram>
</mxfile>
